<svg xmlns="http://www.w3.org/2000/svg" width="150" height="50" viewBox="0,0,150,50"><path d="M11 24 C61 27,57 40,134 40" stroke="#333" fill="none"/><path fill="#222" d="M46.53 41.08L46.49 41.04L46.46 41.01Q42.30 29.77 37.16 24.78L37.21 24.83L37.12 24.74Q38.60 25.38 41.57 26.03L41.59 26.05L41.66 26.12Q45.06 29.90 47.61 36.56L47.71 36.67L47.58 36.54Q50.27 29.21 52.90 26.16L52.89 26.16L52.87 26.13Q54.96 26.14 57.40 25.45L57.35 25.40L57.30 25.35Q54.15 28.11 51.98 32.68L51.95 32.64L52.00 32.69Q51.61 33.33 48.22 40.94L48.22 40.95L48.17 40.89Q47.69 41.10 46.47 41.02ZM51.11 43.45L51.03 43.37L50.99 43.33Q54.38 31.07 58.95 26.39L59.09 26.53L57.46 26.88L57.39 26.81Q56.65 27.10 55.82 27.22L55.96 27.37L55.90 27.30Q56.33 26.86 57.15 25.98L57.20 26.04L57.11 25.95Q58.01 25.15 58.47 24.73L58.39 24.66L58.50 24.76Q56.13 25.25 52.71 25.75L52.82 25.86L52.76 25.80Q50.12 29.06 48.06 34.66L48.11 34.70L47.98 34.58Q46.30 30.35 44.48 27.87L44.61 28.01L43.99 27.91L44.04 27.96Q43.69 27.88 43.46 27.88L43.54 27.97L43.48 27.90Q43.29 27.59 41.57 25.54L41.68 25.64L41.63 25.60Q38.27 25.09 36.02 23.95L36.03 23.95L36.06 23.99Q42.15 29.66 46.15 41.38L46.19 41.43L47.20 41.44L47.06 41.30Q47.42 41.97 48.26 43.26L48.33 43.34L49.62 43.26L49.73 43.37Q50.53 43.44 51.18 43.52Z"/><path fill="#222" d="M123.40 39.90L123.29 39.78L123.36 39.85Q121.45 39.85 119.43 40.04L119.38 39.99L119.39 39.99Q120.01 34.71 120.01 29.88L119.96 29.83L120.12 29.99Q120.03 24.99 119.38 19.78L119.49 19.88L119.44 19.83Q114.74 19.32 111.55 17.65L111.66 17.76L110.94 16.01L110.98 16.05Q110.79 15.56 110.18 14.34L110.12 14.28L110.05 14.21Q115.10 16.86 121.11 17.05L121.25 17.18L121.22 17.16Q127.09 17.31 132.53 15.26L132.41 15.14L132.42 15.15Q131.79 16.65 131.14 18.48L131.07 18.40L131.21 18.55Q127.59 19.84 123.33 20.03L123.33 20.03L123.32 20.02Q123.05 24.96 123.05 29.91L123.08 29.95L123.11 29.98Q123.13 34.94 123.44 39.93ZM133.22 14.58L133.12 14.48L133.18 14.53Q127.33 16.80 121.13 16.61L121.08 16.57L121.11 16.59Q114.45 16.40 109.35 13.44L109.46 13.55L109.40 13.48Q110.12 14.74 111.42 18.01L111.39 17.98L111.36 17.96Q112.00 18.25 113.26 18.83L113.38 18.95L113.39 18.95Q113.54 19.56 113.88 21.08L113.89 21.09L114.04 21.24Q116.14 21.90 119.19 22.13L119.36 22.30L119.19 22.13Q119.62 25.87 119.62 29.64L119.61 29.63L119.67 29.69Q119.61 35.00 118.81 40.37L118.88 40.44L118.85 40.40Q120.58 40.34 121.11 40.34L121.00 40.24L121.05 40.28Q121.16 40.70 121.10 41.37L120.97 41.24L120.92 41.18Q121.01 42.00 121.01 42.34L120.89 42.22L120.98 42.31Q122.12 42.19 123.64 42.27L123.61 42.23L123.67 42.30Q124.61 42.36 126.44 42.51L126.33 42.41L126.49 42.57Q125.13 37.51 125.01 32.33L125.08 32.40L125.16 32.48Q124.91 27.05 125.44 22.14L125.52 22.22L125.45 22.15Q129.44 21.65 132.60 20.43L132.55 20.38L132.59 20.42Q133.31 18.06 134.34 16.00L134.36 16.02L134.26 15.92Q133.05 16.72 132.25 17.03L132.10 16.89L132.13 16.91Q132.59 15.66 133.16 14.51Z"/><path fill="#333" d="M95.71 40.92L95.82 41.04L95.71 40.93Q91.67 29.81 86.53 24.82L86.48 24.77L86.52 24.81Q87.94 25.39 90.91 26.04L90.86 25.99L90.88 26.01Q94.47 29.98 97.02 36.64L96.98 36.60L97.02 36.64Q99.66 29.27 102.29 26.22L102.29 26.23L102.27 26.21Q104.29 26.13 106.73 25.45L106.65 25.37L106.62 25.34Q103.44 28.06 101.27 32.63L101.43 32.79L101.39 32.75Q100.97 33.35 97.58 40.97L97.60 40.99L97.61 41.00Q96.97 41.04 95.75 40.97ZM100.39 43.40L100.36 43.37L100.47 43.48Q103.84 31.20 108.41 26.52L108.43 26.54L106.87 26.96L106.89 26.98Q106.06 27.17 105.22 27.29L105.30 27.37L105.24 27.31Q105.67 26.86 106.48 25.98L106.53 26.03L106.51 26.01Q107.40 25.21 107.86 24.79L107.82 24.75L107.73 24.66Q105.64 25.43 102.22 25.92L102.18 25.88L102.05 25.76Q99.44 29.05 97.39 34.65L97.33 34.59L97.39 34.65Q95.64 30.35 93.81 27.88L93.93 27.99L93.30 27.90L93.30 27.89Q93.14 28.00 92.91 28.00L92.82 27.91L92.92 28.01Q92.56 27.53 90.85 25.48L90.89 25.52L90.88 25.51Q87.53 25.02 85.29 23.88L85.26 23.85L85.43 24.02Q91.49 29.67 95.49 41.39L95.40 41.30L96.48 41.40L96.44 41.35Q96.80 42.01 97.64 43.31L97.68 43.35L99.05 43.35L98.98 43.28Q99.87 43.45 100.52 43.52Z"/><path fill="#222" d="M74.82 27.08L74.95 27.21L74.83 27.08Q75.65 27.11 77.06 26.96L77.21 27.10L77.21 27.11Q77.10 27.68 77.10 28.33L77.03 28.25L77.17 29.65L77.09 29.57Q76.20 29.52 75.36 29.60L75.37 29.60L75.35 29.59Q74.56 29.67 73.72 29.63L73.82 29.73L73.79 29.70Q70.87 35.81 67.45 40.41L67.54 40.50L67.36 40.33Q65.00 41.12 63.70 41.73L63.59 41.61L63.64 41.67Q67.84 36.05 70.89 29.77L70.87 29.75L68.13 29.63L68.15 29.65Q68.15 28.32 68.03 26.99L68.05 27.01L68.09 27.05Q70.03 27.24 72.09 27.24L71.93 27.08L74.02 23.57L73.87 23.42Q74.93 21.59 76.15 19.99L76.21 20.05L76.21 20.05Q74.66 20.22 73.06 20.22L72.95 20.11L73.03 20.18Q66.87 20.12 63.10 17.91L63.18 17.98L62.46 16.20L62.44 16.18Q62.20 15.44 61.82 14.57L61.73 14.48L61.80 14.55Q66.15 17.19 71.86 17.41L71.73 17.28L71.75 17.30Q77.00 17.65 82.14 15.67L82.04 15.57L82.13 15.66Q81.78 15.92 81.29 16.79L81.35 16.86L81.34 16.85Q77.72 21.60 74.86 27.12ZM83.01 18.29L83.08 18.36L83.97 16.24L84.01 16.28Q82.96 16.68 81.28 17.40L81.33 17.45L81.48 17.10L81.63 17.25Q81.68 17.03 81.79 16.91L81.81 16.93L81.68 16.80Q82.05 16.11 82.77 14.78L82.83 14.83L82.93 14.93Q77.56 17.18 71.81 16.95L71.88 17.02L71.81 16.94Q65.70 16.58 60.94 13.61L61.07 13.75L61.04 13.71Q62.07 15.58 62.91 18.25L62.92 18.26L62.94 18.28Q63.93 18.82 64.73 19.12L64.84 19.23L64.81 19.20Q64.90 19.47 65.35 21.34L65.31 21.30L65.32 21.30Q68.53 22.61 74.05 22.46L74.05 22.46L74.08 22.49Q73.79 23.07 71.81 26.84L71.79 26.83L71.81 26.85Q69.75 26.84 67.77 26.65L67.77 26.65L67.70 26.58Q67.77 27.41 67.77 28.28L67.91 28.43L67.91 30.14L69.49 30.04L69.46 31.43L69.50 31.47Q65.63 38.90 62.85 42.48L62.72 42.35L62.87 42.50Q64.36 41.63 66.00 41.13L66.00 41.14L66.00 41.13Q65.42 42.16 64.05 43.87L63.93 43.74L63.92 43.74Q67.07 42.63 69.51 42.40L69.49 42.38L69.61 42.50Q72.56 38.75 75.68 31.97L75.61 31.90L79.04 32.09L78.98 32.03Q79.05 31.26 79.05 30.35L79.05 30.35L78.97 28.49L79.01 28.52Q78.69 28.48 78.14 28.51L78.26 28.63L78.15 28.52Q77.52 28.48 77.26 28.48L77.31 28.54L77.27 28.50Q77.28 28.39 77.32 28.24L77.41 28.33L77.32 27.98L77.45 28.11Q79.92 22.93 83.01 18.28Z"/><path d="M5 20 C89 41,94 17,147 9" stroke="#444" fill="none"/><path fill="#333" d="M26.21 41.24L26.33 41.35L23.30 41.19L23.16 41.05Q20.92 41.08 20.12 40.97L20.00 40.85L19.99 40.84Q18.28 40.62 17.10 39.74L17.10 39.74L17.03 39.67Q15.64 38.17 15.41 34.82L15.46 34.86L15.51 34.92Q15.38 34.33 15.30 33.11L15.48 33.28L15.30 33.10Q15.41 32.80 15.33 31.70L15.29 31.65L15.22 31.58Q15.31 30.87 15.35 30.15L15.38 30.18L15.29 30.08Q15.50 28.17 16.53 27.41L16.50 27.37L16.61 27.49Q18.52 26.32 23.36 26.09L23.30 26.03L23.23 25.97Q25.28 25.88 26.08 25.88L26.19 25.99L26.04 25.84Q27.62 25.94 28.99 26.24L28.88 26.13L29.06 26.31Q28.34 27.42 27.81 29.25L27.91 29.34L27.81 29.25Q27.43 29.44 26.93 29.40L26.86 29.33L26.79 29.26Q26.72 29.26 26.18 29.14L26.18 29.14L25.18 28.87L25.32 29.01Q24.24 28.72 23.63 28.76L23.62 28.75L23.63 28.76Q18.85 28.77 18.24 31.59L18.27 31.62L18.32 31.68Q18.09 32.85 18.16 33.80L18.09 33.73L18.07 33.71Q18.23 36.31 19.47 37.39L19.42 37.34L19.57 37.49Q20.76 38.53 23.35 38.57L23.36 38.58L23.34 38.56Q24.83 38.60 25.55 38.29L25.54 38.29L26.55 37.77L26.51 37.73Q27.09 37.55 27.66 37.47L27.61 37.43L27.72 37.53Q27.81 39.18 28.19 40.48L28.15 40.44L28.18 40.47Q28.07 40.97 26.28 41.31ZM29.54 44.26L29.55 44.28L29.54 44.26Q29.87 44.25 30.71 44.33L30.61 44.23L30.59 44.21Q31.33 44.34 31.67 43.77L31.68 43.78L31.70 43.79Q30.40 41.62 29.91 39.53L29.88 39.51L30.05 39.67Q29.52 39.44 29.06 39.44L29.21 39.59L29.10 39.49Q28.67 39.47 28.28 39.66L28.31 39.68L28.37 39.74Q27.94 38.40 27.79 36.99L27.78 36.98L27.81 37.02Q27.32 37.05 26.10 37.62L26.02 37.54L25.96 37.49Q24.85 38.17 24.36 38.17L24.30 38.11L24.41 38.22Q23.90 38.20 23.29 38.17L23.20 38.07L23.18 38.06Q22.26 38.01 20.28 37.44L20.38 37.54L20.41 37.57Q19.92 36.70 19.96 35.56L20.02 35.62L20.09 35.69Q20.26 31.44 25.21 30.91L25.23 30.93L25.19 30.89Q25.98 31.00 27.35 31.34L27.19 31.17L27.19 31.18Q28.68 31.64 29.41 31.61L29.28 31.47L29.35 31.55Q29.79 29.32 30.47 27.49L30.47 27.49L30.45 27.47Q30.02 27.31 29.64 27.23L29.63 27.23L28.93 27.21L28.95 27.23Q29.21 26.81 29.59 25.93L29.54 25.88L29.55 25.88Q27.99 25.50 26.42 25.50L26.47 25.55L26.36 25.44Q24.06 25.53 19.68 25.92L19.59 25.82L19.70 25.94Q17.65 25.98 16.09 26.97L16.15 27.03L16.18 27.06Q14.97 28.02 14.97 29.92L15.01 29.96L14.86 29.81Q14.98 30.35 15.09 31.57L14.95 31.42L14.98 31.45Q15.10 32.52 15.06 33.13L15.08 33.15L15.00 33.07Q15.01 34.95 15.74 38.68L15.75 38.70L15.86 38.81Q16.12 39.53 16.62 40.02L16.71 40.11L17.03 40.43L16.95 40.32L16.88 40.24Q17.96 42.43 21.88 43.04L21.91 43.07L21.97 43.12Q25.08 43.57 27.75 43.84L27.65 43.74L27.66 43.75Q28.47 43.84 29.38 44.11Z"/><path d="M10 36 C73 16,72 14,142 32" stroke="#555" fill="none"/></svg>